<mxfile host="app.diagrams.net" modified="2023-09-20T20:26:17.031Z" agent="Mozilla/5.0 (Macintosh; Intel Mac OS X 10_15_7) AppleWebKit/605.1.15 (KHTML, like Gecko) Version/17.0 Safari/605.1.15" version="21.8.0" etag="7uUxf03hpoyhmIBxaebW" type="github">
  <diagram name="Page-1" id="I3uzeI1yR59Cci-iTcrx">
    <mxGraphModel>
      <root>
        <mxCell id="0" />
        <mxCell id="1" parent="0" />
      </root>
    </mxGraphModel>
  </diagram>
</mxfile>
